<svg xmlns="http://www.w3.org/2000/svg" xmlns:xlink="http://www.w3.org/1999/xlink" version="1.1" width="256" height="256" viewBox="0 0 256 256" xml:space="preserve">
<desc>Created with Fabric.js 1.7.22</desc>
<defs>
</defs>
<g transform="translate(128 128) scale(1.21 1.21)" style="">
	<g style="stroke: none; stroke-width: 0; stroke-dasharray: none; stroke-linecap: butt; stroke-linejoin: miter; stroke-miterlimit: 10; fill: none; fill-rule: nonzero; opacity: 1;" transform="translate(-104.85 -104.85000000000001) scale(2.33 2.33)" >
	<circle cx="45" cy="45" r="45" style="stroke: none; stroke-width: 1; stroke-dasharray: none; stroke-linecap: butt; stroke-linejoin: miter; stroke-miterlimit: 10; fill: rgb(32,196,203); fill-rule: nonzero; opacity: 1;" transform="  matrix(1 0 0 1 0 0) "/>
	<path d="M 15.007 37.734 V 70.73 c 0 1.323 1.082 2.405 2.405 2.405 h 49.011 c 1.323 0 2.405 -1.082 2.405 -2.405 V 37.734 H 15.007 z M 31.488 65.961 c 0 0.693 -0.567 1.26 -1.26 1.26 h -6.658 c -0.693 0 -1.26 -0.567 -1.26 -1.26 v -6.658 c 0 -0.693 0.567 -1.26 1.26 -1.26 h 6.658 c 0.693 0 1.26 0.567 1.26 1.26 V 65.961 z M 31.488 52.612 c 0 0.693 -0.567 1.26 -1.26 1.26 h -6.658 c -0.693 0 -1.26 -0.567 -1.26 -1.26 v -6.658 c 0 -0.693 0.567 -1.26 1.26 -1.26 h 6.658 c 0.693 0 1.26 0.567 1.26 1.26 V 52.612 z M 46.506 65.961 c 0 0.693 -0.567 1.26 -1.26 1.26 h -6.658 c -0.693 0 -1.26 -0.567 -1.26 -1.26 v -6.658 c 0 -0.693 0.567 -1.26 1.26 -1.26 h 6.658 c 0.693 0 1.26 0.567 1.26 1.26 V 65.961 z M 46.506 52.612 c 0 0.693 -0.567 1.26 -1.26 1.26 h -6.658 c -0.693 0 -1.26 -0.567 -1.26 -1.26 v -6.658 c 0 -0.693 0.567 -1.26 1.26 -1.26 h 6.658 c 0.693 0 1.26 0.567 1.26 1.26 V 52.612 z M 61.523 52.612 c 0 0.693 -0.567 1.26 -1.26 1.26 h -6.658 c -0.693 0 -1.26 -0.567 -1.26 -1.26 v -6.658 c 0 -0.693 0.567 -1.26 1.26 -1.26 h 6.658 c 0.693 0 1.26 0.567 1.26 1.26 V 52.612 z" style="stroke: none; stroke-width: 1; stroke-dasharray: none; stroke-linecap: butt; stroke-linejoin: miter; stroke-miterlimit: 10; fill: rgb(27,167,173); fill-rule: nonzero; opacity: 1;" transform=" matrix(1 0 0 1 0 0) " stroke-linecap="round" />
	<path d="M 66.423 23.551 h -9.355 v -2.652 c 0 -2.529 -2.069 -4.598 -4.598 -4.598 s -4.598 2.069 -4.598 4.598 v 2.652 h -11.91 v -2.652 c 0 -2.529 -2.069 -4.598 -4.598 -4.598 s -4.598 2.069 -4.598 4.598 v 2.652 h -9.355 c -1.323 0 -2.405 1.082 -2.405 2.405 v 7.917 h 53.821 v -7.917 C 68.827 24.633 67.745 23.551 66.423 23.551 z" style="stroke: none; stroke-width: 1; stroke-dasharray: none; stroke-linecap: butt; stroke-linejoin: miter; stroke-miterlimit: 10; fill: rgb(27,167,173); fill-rule: nonzero; opacity: 1;" transform=" matrix(1 0 0 1 0 0) " stroke-linecap="round" />
	<path d="M 18.173 34.568 v 32.996 c 0 1.323 1.082 2.405 2.405 2.405 h 49.011 c 1.323 0 2.405 -1.082 2.405 -2.405 V 34.568 H 18.173 z M 34.654 62.795 c 0 0.693 -0.567 1.26 -1.26 1.26 h -6.658 c -0.693 0 -1.26 -0.567 -1.26 -1.26 v -6.658 c 0 -0.693 0.567 -1.26 1.26 -1.26 h 6.658 c 0.693 0 1.26 0.567 1.26 1.26 V 62.795 z M 34.654 49.446 c 0 0.693 -0.567 1.26 -1.26 1.26 h -6.658 c -0.693 0 -1.26 -0.567 -1.26 -1.26 v -6.658 c 0 -0.693 0.567 -1.26 1.26 -1.26 h 6.658 c 0.693 0 1.26 0.567 1.26 1.26 V 49.446 z M 49.672 62.795 c 0 0.693 -0.567 1.26 -1.26 1.26 h -6.658 c -0.693 0 -1.26 -0.567 -1.26 -1.26 v -6.658 c 0 -0.693 0.567 -1.26 1.26 -1.26 h 6.658 c 0.693 0 1.26 0.567 1.26 1.26 V 62.795 z M 49.672 49.446 c 0 0.693 -0.567 1.26 -1.26 1.26 h -6.658 c -0.693 0 -1.26 -0.567 -1.26 -1.26 v -6.658 c 0 -0.693 0.567 -1.26 1.26 -1.26 h 6.658 c 0.693 0 1.26 0.567 1.26 1.26 V 49.446 z M 64.689 49.446 c 0 0.693 -0.567 1.26 -1.26 1.26 h -6.658 c -0.693 0 -1.26 -0.567 -1.26 -1.26 v -6.658 c 0 -0.693 0.567 -1.26 1.26 -1.26 h 6.658 c 0.693 0 1.26 0.567 1.26 1.26 V 49.446 z" style="stroke: none; stroke-width: 1; stroke-dasharray: none; stroke-linecap: butt; stroke-linejoin: miter; stroke-miterlimit: 10; fill: rgb(255,255,255); fill-rule: nonzero; opacity: 1;" transform=" matrix(1 0 0 1 0 0) " stroke-linecap="round" />
	<path d="M 69.589 20.385 h -9.355 v -2.652 c 0 -2.529 -2.069 -4.598 -4.598 -4.598 c -2.529 0 -4.598 2.069 -4.598 4.598 v 2.652 h -11.91 v -2.652 c 0 -2.529 -2.069 -4.598 -4.598 -4.598 s -4.598 2.069 -4.598 4.598 v 2.652 h -9.355 c -1.323 0 -2.405 1.082 -2.405 2.405 v 7.917 h 53.821 v -7.917 C 71.993 21.467 70.911 20.385 69.589 20.385 z" style="stroke: none; stroke-width: 1; stroke-dasharray: none; stroke-linecap: butt; stroke-linejoin: miter; stroke-miterlimit: 10; fill: rgb(255,255,255); fill-rule: nonzero; opacity: 1;" transform=" matrix(1 0 0 1 0 0) " stroke-linecap="round" />
</g>
</g>
</svg>